Coordinates
version=1
nRows=16
nColumns=36
inDegrees=yes

Units are S.I. units (second, meters, Newtons, ...)
If the header above contains a line with 'inDegrees', this indicates whether rotational values are in degrees (yes) or radians (no).

endheader
time	pelvis_tilt	pelvis_list	pelvis_rotation	pelvis_tx	pelvis_ty	pelvis_tz	hip_flexion_r	hip_adduction_r	hip_rotation_r	knee_angle_r	knee_angle_r_beta	ankle_angle_r	subtalar_angle_r	mtp_angle_r	hip_flexion_l	hip_adduction_l	hip_rotation_l	knee_angle_l	knee_angle_l_beta	ankle_angle_l	subtalar_angle_l	mtp_angle_l	lumbar_extension	lumbar_bending	lumbar_rotation	arm_flex_r	arm_add_r	arm_rot_r	elbow_flex_r	pro_sup_r	arm_flex_l	arm_add_l	arm_rot_l	elbow_flex_l	pro_sup_l
     30.00000000	     -0.99424722	     -0.16045024	     -4.38471020	      0.74324039	      0.95669382	      0.84421232	      8.74347172	      1.65803473	      7.19757467	     18.67260103	      0.32589837	     14.64498934	     -0.51239320	     -7.49999987	     19.70886162	     -5.65156246	      0.91180289	     56.59098912	      0.98769909	      1.72531663	    -19.84548002	     -7.49999987	    -23.69174451	      3.35075726	      4.37627897	      9.28179890	    -15.30305315	      3.23338504	     27.01758550	     76.37652047	     12.26504174	    -14.37984279	      6.31744137	     31.04965110	     74.73769019
     30.01666670	     -0.73139583	      0.36680128	     -4.17090412	      0.73834590	      0.95795771	      0.84294752	      7.16479805	      0.97310586	      6.88629136	     17.82817178	      0.31116030	     15.09085007	      0.52407283	     -7.49999987	     21.00594093	     -5.69345818	      0.55716604	     53.76435631	      0.93836504	      2.99040739	    -19.02714198	     -7.49999987	    -24.02548381	      2.61567660	      5.24445596	      9.78280927	    -15.61730992	      4.21230387	     27.68487294	     76.30892160	     12.35931419	    -14.39393148	      7.50773258	     30.20274232	     74.68788164
     30.03333330	     -0.49251320	      0.80919296	     -3.81722138	      0.73172533	      0.95791290	      0.84125851	      5.66502611	      0.39101883	      6.87429668	     17.03420441	      0.29730295	     15.16570335	      0.94321698	     -7.49999987	     22.36328579	     -5.71245686	      0.37410466	     50.44731073	      0.88047167	      3.19898455	    -18.93388763	     -7.49999987	    -24.72949319	      2.02967097	      5.77986571	     10.44661262	    -15.83786209	      4.27699256	     29.05112182	     75.58637392	     11.98011844	    -14.39997450	      7.63528728	     30.57235731	     73.98259318
     30.05000000	     -0.36941767	      1.18207501	     -3.50546394	      0.72543037	      0.95836712	      0.83961091	      4.43547298	     -0.13730239	      6.89557287	     16.45012121	      0.28710878	     15.51456301	      1.53393355	     -7.49999987	     23.81195136	     -5.83536700	      0.08541028	     46.86120225	      0.81788227	      3.49682443	    -18.04971266	     -7.49999987	    -25.42637688	      1.48267641	      6.44629482	     11.22965563	    -16.14824892	      4.52107521	     30.43842406	     75.00470514	     11.70535387	    -14.22965067	      7.84120014	     30.65780756	     73.36605274
     30.06666670	     -0.37271740	      1.45375555	     -3.18202536	      0.71891752	      0.95972286	      0.83758338	      3.46464072	     -0.56604101	      6.99261263	     16.05413633	      0.28019754	     15.89039206	      2.13394032	     -7.49999987	     25.33082532	     -6.04271520	     -0.16840935	     43.04739772	      0.75131882	      3.78083513	    -16.73861456	     -7.49999987	    -26.04862735	      1.05882956	      7.13330549	     12.13396873	    -16.59538912	      5.06031449	     31.60870132	     75.13441686	     11.74217039	    -13.95284504	      8.24882939	     30.47407795	     73.33790097
     30.08333330	     -0.63737251	      1.69802797	     -2.76519116	      0.71209960	      0.95881938	      0.83523546	      2.86744222	     -1.00278885	      6.97704348	     15.79110282	      0.27560674	     16.08900981	      2.52370404	     -7.49999987	     27.10897691	     -6.16050291	     -0.15574557	     39.16939788	      0.68363496	      3.67192926	    -15.71930740	     -7.49999987	    -26.48935400	      0.75568943	      7.56160489	     13.09879078	    -16.99193776	      5.35333736	     32.85682413	     74.56172205	     11.57958500	    -13.67020400	      8.34119425	     31.02110176	     72.71293297
     30.10000000	     -1.06451084	      1.84392989	     -2.34610336	      0.70701223	      0.95596889	      0.83356841	      2.57924268	     -1.35432285	      6.75077214	     15.74367094	      0.27477889	     16.51993906	      3.05222107	     -7.49999987	     29.07042864	     -6.37528930	     -0.05232536	     35.48637574	      0.61935410	      4.05934671	    -13.95408999	     -7.49999987	    -26.67679715	      0.57916503	      7.97309145	     14.38076625	    -17.52307348	      6.48095203	     33.49684585	     74.96770559	     11.68043595	    -13.27007929	      8.70449548	     30.97217226	     72.83106867
     30.11666670	     -1.55828790	      1.97116070	     -1.83649387	      0.70461044	      0.95242280	      0.83165884	      2.40361568	     -1.66195861	      6.62029956	     15.80183527	      0.27579405	     17.01055666	      3.09239499	     -7.49999987	     31.07205284	     -6.42785076	      0.41740851	     31.90039935	      0.55676700	      4.01877169	    -12.86646224	     -7.49999987	    -26.73699486	      0.56589334	      8.40176540	     15.61903825	    -17.81157192	      6.76232421	     33.95266217	     75.07772141	     11.72866848	    -12.90042678	      8.80132745	     31.08057001	     72.86561009
     30.13333330	     -1.94645895	      2.17476762	     -1.59416579	      0.70304592	      0.95064044	      0.82872506	      2.03351340	     -2.05506435	      6.48233685	     15.76319515	      0.27511966	     18.06948626	      3.83568834	     -7.49999987	     32.87158708	     -6.48268724	      0.46583695	     28.61525042	      0.49943034	      5.11141578	    -10.85384235	     -7.49999987	    -26.84785817	      0.27934206	      8.05007762	     17.78440601	    -18.29907477	     10.72225371	     33.69389360	     75.79674679	     11.27603581	    -12.84021973	      8.51671891	     31.19818892	     72.92347334
     30.15000000	     -2.30627516	      2.58759418	     -1.19813907	      0.70231536	      0.94865170	      0.82512257	      1.37376315	     -2.61017138	      6.55837808	     15.48517112	      0.27026722	     19.10757161	      4.09514952	     -7.49999987	     34.65152617	     -6.03762202	      0.83310943	     25.75031637	      0.44942780	      6.30424049	     -9.27916285	     -7.49999987	    -26.96044352	     -0.11356473	      7.93195314	     19.33377332	    -18.41084562	     12.01002440	     33.62982709	     75.64701120	     10.96263395	    -12.56366546	      7.93255614	     30.78218494	     72.72461450
     30.16666670	     -2.64517566	      3.31331735	     -0.79879378	      0.70367916	      0.94600632	      0.82338720	      0.38507187	     -3.38303128	      7.14338834	     14.96228852	      0.26114120	     19.88348965	      3.85731675	     -7.49999987	     36.33730453	     -5.17923429	      1.28835115	     23.44695566	      0.40922658	      7.96477272	     -7.90238438	     -7.49999987	    -26.91868282	     -0.90984908	      7.37892436	     21.05096522	    -18.35149045	     14.96322843	     32.72898194	     75.37821789	     10.40750472	    -12.46169508	      7.10538660	     30.03666275	     72.69909286
     30.18333330	     -2.86718133	      4.35087600	     -0.22278551	      0.70687236	      0.94277406	      0.82323051	     -1.18794782	     -4.40231571	      7.90133638	     14.04512665	      0.24513370	     20.13038131	      3.33875986	     -7.49999987	     37.78991122	     -3.79253987	      2.08683844	     21.75917700	      0.37976928	      9.68301235	     -7.07993261	     -7.49999987	    -26.90082842	     -2.19348576	      7.05184748	     21.59387134	    -18.02220817	     15.29778295	     32.53129261	     75.28969351	     10.10631822	    -12.37724154	      6.78865018	     29.01487523	     72.69267246
     30.20000000	     -3.18384517	      5.54892739	      0.37356526	      0.70880391	      0.93901144	      0.82341642	     -2.93760166	     -5.53026782	      8.93436061	     12.96779694	      0.22633075	     19.65594993	      2.29573299	     -7.49999987	     39.24845006	     -2.19184561	      2.70564144	     20.81962541	      0.36337101	     11.21201603	     -6.31503484	     -7.49999987	    -26.72978975	     -3.83239796	      6.69186839	     21.87912880	    -17.59029656	     15.82046219	     32.16351022	     74.80483121	      9.92083663	    -12.37808004	      6.67471668	     27.77957619	     72.36251453
     30.21666670	     -3.64120789	      6.46767969	      0.97674237	      0.70842527	      0.93390723	      0.82306459	     -4.59100000	     -6.41719846	      9.77455284	     11.98287295	      0.20914059	     18.75346315	      1.32239501	     -7.49999987	     40.77781056	     -0.77477200	      3.17452556	     20.56714645	      0.35896442	     12.16614974	     -5.65402869	     -7.49999987	    -26.43719596	     -5.25927287	      6.46597507	     22.15768909	    -17.28314924	     16.67328325	     31.81462231	     74.47894618	      9.88827455	    -12.46198478	      6.99665783	     26.53134830	     72.35060539
     30.23333330	     -4.11820752	      6.97346194	      1.31704253	      0.70922859	      0.92690477	      0.82172237	     -5.97688639	     -6.95429669	     10.65712796	     11.44502798	      0.19975342	     18.04435827	      0.39844144	     -7.49999987	     42.09110526	      0.17760533	      3.12097723	     20.87729215	      0.36437749	     12.71629888	     -4.79034623	     -7.49999987	    -26.08351381	     -6.39938314	      6.87307179	     22.38485205	    -17.37544992	     18.67274385	     31.53733796	     72.53579165	     10.11045401	    -12.44757654	      8.15764884	     25.24354052	     72.36644771
     30.25000000	     -4.51248772	      7.07016659	      1.55820983	      0.71344587	      0.91878510	      0.81846708	     -7.20176210	     -7.09621441	     11.56958274	     11.30981205	      0.19739346	     17.48941278	     -1.01237065	     -7.49999987	     42.96789621	      0.86055210	      2.76906105	     21.73549612	      0.37935597	     13.04106580	     -3.57502517	     -7.49999987	    -25.80130828	     -7.10306325	      7.35463276	     22.32240693	    -17.19874889	     18.69928854	     31.64770270	     72.38355704	      9.80274387	    -12.27314187	      7.80798538	     24.64949765	     72.35837682
